# xmcd
#
# Track frame offsets:
#	150
#	12779
#	35363
#	50178
#	64092
#	90378
#	102039
#	128192
#	144683
#	169073
#	201919
#
# Disc length: 3119 seconds
#
# Revision: 1
# Processed by: cddbd v1.5.2PL0 Copyright (c) Steve Scherf et al.
# Submitted via: audiograbber 1.83.01
#
DISCID=940c2d0b
DTITLE=Gary Moore - Close As You Get
DYEAR=2007
DGENRE=Blues
TTITLE0=If The Devil Made Whisky
TTITLE1=Trouble At Home
TTITLE2=Thirty Days
TTITLE3=Hard Times
TTITLE4=Have You Heard
TTITLE5=Eyesight To The Blind
TTITLE6=Evenin'
TTITLE7=Nowhere Fast
TTITLE8=Checkin' Up On My Baby
TTITLE9=I Had A Dream
TTITLE10=Sundown
EXTD=
EXTT0=
EXTT1=
EXTT2=
EXTT3=
EXTT4=
EXTT5=
EXTT6=
EXTT7=
EXTT8=
EXTT9=
EXTT10=
PLAYORDER=
